<?xml version="1.0" encoding="UTF-8"?><svg id="Livello_1" xmlns="http://www.w3.org/2000/svg" viewBox="0 0 423.07 153.82"><defs><style>.cls-1{stroke-width:0px;}</style></defs><path class="cls-1" d="m209.78,0l-11.86.02h-25.38l-2.03,7.86h18.8l-38.55,135.44h-27.98L161.44,0h-5.24L17.91,143.32H0v7.21h47.41v-7.21s-19.44,0-19.44,0l41.94-43.26h45.66l-11.79,43.26h-18.79v7.21h94.99v-7.21h-10.83L209.78,0ZM76.9,92.85l55.27-56.8h.66l-15.29,56.8h-40.63Z"/><path class="cls-1" d="m242.93,32.93c7.22,0,13.35-6.13,13.35-13.57,0-7.44-6.13-13.57-13.35-13.57s-13.57,6.13-13.57,13.57c0,7.44,6.13,13.57,13.57,13.57Z"/><path class="cls-1" d="m412.79,85.76l10.28-36.11h-6.35l-7.44,8.97c-5.91-6.13-13.79-9.85-23.2-9.85-18.16,0-33.04,14.88-33.04,31.3,0,10.94,5.25,18.38,11.6,21.45l18.82,9.19c7.22,3.5,11.6,8.53,11.6,14.44,0,10.72-8.53,21.45-21.66,21.45s-22.44-8.82-24.23-26.21c-.4-3.85,0-7.74,1.08-11.46l.41-1.33h-7.66l-5.21,18.42c-3.28,11.6-7.66,18.16-14,18.16-4.59,0-6.13-3.94-3.94-11.6l22.97-80.1h-18.6l-3.94,13.57h-.44c-4.82-11.16-13.35-17.29-24.07-17.29-22.54,0-44.86,23.2-51.64,49.24-6.56,25.39,3.29,55.8,25.83,55.8,12.04,0,23.2-6.78,32.61-19.7h.88c-2.19,9.85,4.38,18.16,17.07,18.16,3.92,0,7.45-.7,10.61-2.48l1.4-.83c2.4-1.7,6.55-5.65,9.87-14.08l.52-1.27h.7s.04.6.19,1.35c.28,1.4.97,3.21,1.98,5.2.48.95,1.06,1.84,1.74,2.66,6.57,7.96,16.07,10.98,25.01,10.98,21.67,0,37.64-20.13,37.2-36.77-.22-9.19-4.6-16.63-10.07-19.26l-21.66-10.72c-8.75-4.38-11.82-8.97-11.82-14.88,0-9.41,8.97-16.41,19.91-16.41,13.35,0,22.76,11.16,21.23,29.98h5.47Zm-102.57,16.85c-6.56,23.42-23.19,43.99-39.39,43.99-10.07,0-15.54-8.75-11.16-24.29l12.69-45.96c3.94-14.01,12.69-20.35,22.54-20.35,14.88,0,23.64,15.97,15.32,46.61Z"/><polygon class="cls-1" points="245.69 52.5 233.86 52.41 208.47 52.41 206.44 60.25 225.08 60.25 201.67 143.32 189.31 143.32 189.31 150.53 232.94 150.53 232.94 143.32 220.05 143.32 245.69 52.5"/></svg>