<?xml version="1.0" encoding="UTF-8"?><svg id="a" xmlns="http://www.w3.org/2000/svg" viewBox="0 0 200 36"><defs><style>.c{fill:none;}.d{fill:#6ea100;}</style></defs><rect class="c" width="200" height="36"/><g id="b"><path class="d" d="M4.5.08l5.5,28.34L17.9.46h4.26l7.97,27.56L35.55.08h4.41l-7.05,35.3h-4.95l-7.74-28.03-7.97,28.1h-4.95L.09.08h4.41Z"/><path class="d" d="M45.92.08h4.41v4.95h-4.41V.08ZM45.92,9.75h4.41v25.55h-4.41V9.75Z"/><path class="d" d="M58.54,31.9V.08h4.41v35.46h-1.63c-3.17-.39-2.79-3.56-2.79-3.56v-.08Z"/><path class="d" d="M71.08.08h4.26l.15,22.53,11.15-12.54h5.5l-9.21,10.14,10.14,15.33h-5.19l-7.74-12.15-4.8,5.19v6.89h-4.26V0v.08Z"/><path class="d" d="M98.1.15h4.1v13.16c.93-1.32,1.86-2.25,2.63-2.79,1.32-.93,3.1-1.32,5.03-1.32,3.56,0,5.96,1.32,7.35,3.87.7,1.47,1.08,3.48,1.08,5.96v16.49h-4.26v-16.26c0-1.86-.23-3.33-.7-4.1-.77-1.47-2.17-2.17-4.26-2.17s-3.33.7-4.65,1.86c-1.47,1.16-2.17,3.56-2.17,7.05v13.7h-4.1V.15h-.15.08Z"/><path class="d" d="M140.99,35.46v-3.56c-.77,1.08-2.17,2.17-3.72,2.94-1.63.77-3.33,1.16-5.34,1.16s-4.26-.7-5.73-2.17c-1.47-1.47-2.25-3.17-2.25-5.34s.7-4.26,2.17-5.57c1.47-1.47,2.4-2.25,5.73-2.63l6.81-.39c.93-.15,1.63-.54,2.01-1.16.15-.39.23-.93.23-1.63,0-1.47-.54-2.55-1.47-3.17-1.08-.7-2.55-.93-4.41-.93s-3.72.54-4.65,1.7c-.54.7-.77,1.63-1.08,2.94h-3.87c.15-3.1,1.08-5.19,3.1-6.5,1.86-1.16,4.1-1.86,6.66-1.86s5.34.54,7.2,1.7c1.86,1.08,2.63,2.94,2.63,5.34v19.05l-4.03.15v-.08ZM129.92,31.2c.93.7,1.7,1.08,2.94,1.08s2.94-.23,4.26-.93c2.17-1.47,3.1-3.1,3.48-5.57v-2.4c-.7,0-1.08,0-2.01.15-.77,0-1.47.15-2.25.23l-2.55.23c-1.47.23-2.63.54-3.48.93-1.32.77-1.7,1.86-1.7,3.48,0,1.32.54,2.01,1.32,2.79Z"/><path class="d" d="M179.47,10.06h4.03v3.56c1.16-1.47,2.4-2.55,3.72-3.17,1.32-.7,2.79-.93,4.41-.93,3.56,0,5.96,1.16,7.2,3.72.7,1.32,1.08,3.33,1.08,5.96v16.41h-4.26v-16.1c0-1.63-.23-2.79-.7-3.72-.77-1.63-2.17-2.4-4.1-2.4s-1.86.15-2.4.23c-1.16.39-2.17,1.08-3.1,2.17-.7.77-1.16,1.7-1.32,2.63-.23.93-.23,2.17-.23,3.87v13.32h-4.26V10.06h-.08Z"/><path class="d" d="M151.91.15h4.1v13.16c.93-1.32,1.86-2.25,2.63-2.79,1.32-.93,3.1-1.32,5.03-1.32,3.56,0,5.96,1.32,7.35,3.87.7,1.47,1.08,3.48,1.08,5.96v16.49h-4.26v-16.26c0-1.86-.23-3.33-.7-4.1-.77-1.47-2.17-2.17-4.26-2.17s-3.33.7-4.65,1.86c-1.47,1.16-2.17,3.56-2.17,7.05v13.7h-4.26V.15h.08Z"/></g></svg>